#!OML:ASF E:\Style4\Style4.ASF
:FULLY-SPECIFIED
:DEGREES
1627
root -0.265195 17.0875 -2.71669 1.69801 3.21686 5.85862
lowerback 14.8748 3.50274 4.45509
upperback 9.02702 5.16301 3.085
thorax 1.3565 2.69214 0.0526403
lowerneck 4.45047 -8.68885 -5.46285
upperneck -1.69175 -11.8463 1.25195
head -0.86077 -5.9003 1.48949
rclavicle 5.56597e-015 1.59028e-015
rhumerus 21.7741 -13.8301 -49.3627
rradius 47.8665
rwrist 4.70194
rhand -19.8748 10.0117
rfingers 7.12502
rthumb 6.46069 -19.8697
lclavicle 5.56597e-015 1.59028e-015
lhumerus -19.4718 10.9353 23.7077
lradius 73.4193
lwrist 0.915308
lhand -17.0889 32.0765
lfingers 7.12502
lthumb 9.14954 61.8581
rfemur -27.3143 -2.33516 12.2987
rtibia 50.9939
rfoot -23.232 -13.6493
rtoes -11.29
lfemur -23.5543 1.28989 -25.5956
ltibia 45.3437
lfoot -22.3464 6.82025
ltoes -14.6267
1628
root -0.244308 17.0915 -2.71695 1.61351 2.55219 5.85083
lowerback 14.9701 3.46616 4.45585
upperback 9.00347 5.11816 3.09121
thorax 1.27934 2.6663 0.0562926
lowerneck 4.28017 -8.55281 -5.38861
upperneck -1.5433 -11.6571 0.972236
head -0.812565 -5.80397 1.37588
rclavicle 5.56597e-014 1.11319e-014
rhumerus 21.7192 -13.5379 -49.772
rradius 47.899
rwrist 4.61388
rhand -19.9109 10.0261
rfingers 7.12502
rthumb 6.42582 -19.8564
lclavicle 5.56597e-014 1.11319e-014
lhumerus -18.943 11.0349 23.4606
lradius 73.0829
lwrist 0.918437
lhand -17.1062 31.9061
lfingers 7.12502
lthumb 9.13287 61.6884
rfemur -27.3505 -1.95799 12.2386
rtibia 50.911
rfoot -23.117 -13.4309
rtoes -11.4622
lfemur -23.403 1.64123 -25.6659
ltibia 45.3135
lfoot -22.5053 7.12775
ltoes -14.7936
1629
root -0.223671 17.0939 -2.71798 1.59608 1.91821 5.84317
lowerback 15.0156 3.43712 4.44878
upperback 8.93516 5.0816 3.09716
thorax 1.18007 2.64341 0.0641034
lowerneck 4.21167 -8.43874 -5.25534
upperneck -1.47353 -11.5011 0.68629
head -0.808312 -5.72322 1.26042
rclavicle 9.38264e-014 6.36111e-015
rhumerus 21.5958 -13.2351 -50.1125
rradius 48.0383
rwrist 4.49978
rhand -19.8882 9.88469
rfingers 7.12502
rthumb 6.44771 -19.9972
lclavicle 9.38264e-014 6.36111e-015
lhumerus -18.169 11.1191 23.3013
lradius 72.6109
lwrist 0.823535
lhand -17.0015 32.04
lfingers 7.12502
lthumb 9.23392 61.8178
rfemur -27.4668 -1.58128 12.173
rtibia 50.8417
rfoot -23.0609 -13.1549
rtoes -11.2145
lfemur -23.3475 1.93543 -25.733
ltibia 45.2937
lfoot -22.6642 7.40357
ltoes -14.7183
1630
root -0.202679 17.0935 -2.71848 1.60785 1.32905 5.80701
lowerback 14.9663 3.37147 4.45855
upperback 8.89642 4.99238 3.11415
thorax 1.1613 2.59643 0.0890302
lowerneck 4.13786 -8.29496 -5.14359
upperneck -1.45327 -11.3073 0.40434
head -0.817767 -5.62297 1.15114
rclavicle 3.18055e-014 -4.77083e-014
rhumerus 21.532 -12.9231 -50.53
rradius 48.1259
rwrist 4.38489
rhand -20.0245 9.82384
rfingers 7.12502
rthumb 6.31619 -20.062
lclavicle 3.18055e-014 -4.77083e-014
lhumerus -17.3959 11.298 23.1495
lradius 72.1148
lwrist 0.736449
lhand -16.8092 32.1308
lfingers 7.12502
lthumb 9.41943 61.9003
rfemur -27.6329 -1.27436 12.1475
rtibia 50.7971
rfoot -22.9542 -12.9568
rtoes -11.3534
lfemur -23.3246 2.1393 -25.7758
ltibia 45.287
lfoot -22.7631 7.74718
ltoes -14.863
1631
root -0.181647 17.0934 -2.71655 1.59192 0.770178 5.83997
lowerback 14.9357 3.28548 4.40153
upperback 8.85303 4.86996 3.10364
thorax 1.12303 2.53088 0.124805
lowerneck 4.15166 -8.13034 -4.98293
upperneck -1.48489 -11.091 0.0582138
head -0.864271 -5.50948 1.02131
rclavicle 5.80451e-014 9.54166e-015
rhumerus 21.4627 -12.6194 -51.0031
rradius 48.2357
rwrist 4.35954
rhand -20.1608 9.70857
rfingers 7.12502
rthumb 6.18454 -20.1812
lclavicle 5.80451e-014 9.54166e-015
lhumerus -16.6945 11.4451 23.0288
lradius 71.6164
lwrist 0.662496
lhand -16.8174 32.0636
lfingers 7.12502
lthumb 9.41155 61.8335
rfemur -27.7458 -1.00049 12.043
rtibia 50.7682
rfoot -22.8941 -12.739
rtoes -11.5476
lfemur -23.2591 2.24949 -25.8952
ltibia 45.2833
lfoot -22.8947 8.14393
ltoes -14.9637
1632
root -0.161492 17.0955 -2.71491 1.58444 0.228738 5.8632
lowerback 14.9362 3.19603 4.33126
upperback 8.79431 4.74433 3.11569
thorax 1.04897 2.46194 0.189031
lowerneck 4.08675 -7.99048 -4.91924
upperneck -1.41889 -10.9049 -0.245739
head -0.857603 -5.41334 0.912151
rclavicle 1.11319e-014 -1.59028e-015
rhumerus 21.2633 -12.1623 -51.2805
rradius 48.4953
rwrist 4.26903
rhand -20.2652 9.55643
rfingers 7.12502
rthumb 6.08379 -20.3362
lclavicle 1.11319e-014 -1.59028e-015
lhumerus -16.0699 11.5194 22.9575
lradius 71.1885
lwrist 0.696995
lhand -17.0823 31.9366
lfingers 7.12502
lthumb 9.15595 61.7179
rfemur -27.8554 -0.735382 11.9511
rtibia 50.7463
rfoot -22.8507 -12.4877
rtoes -11.4216
lfemur -23.2188 2.46254 -25.9963
ltibia 45.2772
lfoot -22.9821 8.49078
ltoes -15.3761
